<svg width="122" height="68" viewBox="0 0 122 68" fill="none" xmlns="http://www.w3.org/2000/svg">
<path fill-rule="evenodd" clip-rule="evenodd" d="M27.4116 68H16.9956C16.5287 68 16.148 67.6193 16.148 67.1525V12.1111H0.847548C0.380696 12.1111 0 11.7302 0 11.2634V0.84755C0 0.380698 0.380696 0 0.847548 0H43.5594C44.0263 0 44.407 0.380698 44.407 0.84755V11.2634C44.407 11.7302 44.0263 12.1111 43.5594 12.1111H28.2591V67.1525C28.2591 67.6193 27.8784 68 27.4116 68ZM72.6661 19.3376V16.9956C72.6661 16.5287 73.0468 16.148 73.5136 16.148H75.8555C76.3223 16.148 76.703 16.5287 76.703 16.9956V19.3376C76.703 19.8044 76.3223 20.1851 75.8555 20.1851H73.5136C73.0468 20.1851 72.6661 19.8044 72.6661 19.3376ZM77.5507 20.1851H79.8926C80.3594 20.1851 80.7401 20.5658 80.7401 21.0327V23.3745C80.7401 23.8413 80.3594 24.222 79.8926 24.222H77.5507C77.0839 24.222 76.703 23.8413 76.703 23.3745V21.0327C76.703 20.5658 77.0839 20.1851 77.5507 20.1851ZM81.5877 24.222H83.9295C84.3963 24.222 84.7772 24.6029 84.7772 25.0697V27.4116C84.7772 27.8784 84.3963 28.2591 83.9295 28.2591H81.5877C81.1208 28.2591 80.7401 27.8784 80.7401 27.4116V25.0697C80.7401 24.6029 81.1208 24.222 81.5877 24.222ZM80.7401 29.1067V32.296H87.9666C88.4334 32.296 88.8141 32.6769 88.8141 33.1438V67.1525C88.8141 67.6193 88.4334 68 87.9666 68H61.4025C60.9357 68 60.555 67.6193 60.555 67.1525V33.1438C60.555 32.6769 60.9357 32.296 61.4025 32.296H76.703V29.1067C76.703 28.6398 77.0839 28.2591 77.5507 28.2591H79.8926C80.3594 28.2591 80.7401 28.6398 80.7401 29.1067ZM76.703 15.3005V12.9586C76.703 12.4918 77.0839 12.1111 77.5507 12.1111H79.8926C80.3594 12.1111 80.7401 12.4918 80.7401 12.9586V15.3005C80.7401 15.7673 80.3594 16.148 79.8926 16.148H77.5507C77.0839 16.148 76.703 15.7673 76.703 15.3005ZM113.036 0.84755V3.18938C113.036 3.65623 112.655 4.03709 112.189 4.03709H109.847C109.38 4.03709 108.999 3.65623 108.999 3.18938V0.84755C108.999 0.380698 109.38 0 109.847 0H112.189C112.655 0 113.036 0.380698 113.036 0.84755ZM104.115 8.07401H101.773C101.306 8.07401 100.925 7.69332 100.925 7.22646V4.88464C100.925 4.41778 101.306 4.03709 101.773 4.03709H104.115C104.581 4.03709 104.962 4.41778 104.962 4.88464V7.22646C104.962 7.69332 104.581 8.07401 104.115 8.07401ZM96.8881 0.84755V3.18938C96.8881 3.65623 96.5074 4.03709 96.0406 4.03709H93.6988C93.2319 4.03709 92.8512 3.65623 92.8512 3.18938V0.84755C92.8512 0.380698 93.2319 0 93.6988 0H96.0406C96.5074 0 96.8881 0.380698 96.8881 0.84755ZM87.9666 16.148H85.6247C85.1579 16.148 84.7772 15.7673 84.7772 15.3005V12.9586C84.7772 12.4918 85.1579 12.1111 85.6247 12.1111H87.9666C88.4334 12.1111 88.8141 12.4918 88.8141 12.9586V15.3005C88.8141 15.7673 88.4334 16.148 87.9666 16.148ZM87.9666 8.07401H85.6247C85.1579 8.07401 84.7772 7.69332 84.7772 7.22646V4.88464C84.7772 4.41778 85.1579 4.03709 85.6247 4.03709H87.9666C88.4334 4.03709 88.8141 4.41778 88.8141 4.88464V7.22646C88.8141 7.69332 88.4334 8.07401 87.9666 8.07401ZM121.11 16.9956V51.0044C121.11 51.4713 120.729 51.852 120.263 51.852H104.962V67.1525C104.962 67.6193 104.581 68 104.115 68H93.6988C93.2319 68 92.8512 67.6193 92.8512 67.1525V16.9956C92.8512 16.5287 93.2319 16.148 93.6988 16.148H120.263C120.729 16.148 121.11 16.5287 121.11 16.9956ZM33.1438 16.148C44.6896 16.148 56.2356 16.148 67.7815 16.148C68.2483 16.148 68.629 16.5287 68.629 16.9956V27.4116C68.629 27.8784 68.2483 28.2591 67.7815 28.2591H56.5181V67.1525C56.5181 67.6193 56.1372 68 55.6704 68H45.2545C44.7877 68 44.407 67.6193 44.407 67.1525V28.2591H33.1438C32.6769 28.2591 32.296 27.8784 32.296 27.4116V16.9956C32.296 16.5287 32.6769 16.148 33.1438 16.148ZM35.4856 68H33.1438C32.6769 68 32.296 67.6193 32.296 67.1525V64.8106C32.296 64.3438 32.6769 63.9629 33.1438 63.9629H35.4856C35.9524 63.9629 36.3331 64.3438 36.3331 64.8106V67.1525C36.3331 67.6193 35.9524 68 35.4856 68ZM76.703 55.8889V43.778H72.6661V55.8889H76.703ZM108.999 40.3702V28.2591H104.962V40.3702H108.999Z" fill="url(#paint0_linear_411_1335)"/>
<path fill-rule="evenodd" clip-rule="evenodd" d="M72.666 43.778V55.8889H76.7029V43.778H72.666Z" fill="#FFED00"/>
<defs>
<linearGradient id="paint0_linear_411_1335" x1="28.2591" y1="0" x2="28.2591" y2="67.1524" gradientUnits="userSpaceOnUse">
<stop stop-color="#B022DE"/>
<stop offset="1" stop-color="#8009D4"/>
</linearGradient>
</defs>
</svg>
